<svg width="27" height="20" viewBox="0 0 27 20" fill="none" xmlns="http://www.w3.org/2000/svg">
<path d="M25.3333 0.00877833C25.2197 -0.00292611 25.1053 -0.00292611 24.9917 0.00877833H1.65833C1.50879 0.0110826 1.36023 0.0335061 1.21667 0.0754449L13.2583 12.0671L25.3333 0.00877833Z" fill="#26C17E"/>
<path d="M26.5667 1.16712L14.4333 13.2504C14.1211 13.5609 13.6986 13.7351 13.2583 13.7351C12.818 13.7351 12.3956 13.5609 12.0833 13.2504L0.0583334 1.25878C0.0213662 1.39465 0.00176557 1.53465 0 1.67545V18.3421C0 18.7841 0.175595 19.2081 0.488155 19.5206C0.800716 19.8332 1.22464 20.0088 1.66667 20.0088H25C25.442 20.0088 25.866 19.8332 26.1785 19.5206C26.4911 19.2081 26.6667 18.7841 26.6667 18.3421V1.67545C26.66 1.50183 26.6263 1.33031 26.5667 1.16712ZM2.80833 18.3421H1.65V17.1504L7.70833 11.1421L8.88333 12.3171L2.80833 18.3421ZM24.9833 18.3421H23.8167L17.7417 12.3171L18.9167 11.1421L24.975 17.1504L24.9833 18.3421Z" fill="#26C17E"/>
</svg>
