<svg width="24" height="24" viewBox="0 0 24 24" fill="none" xmlns="http://www.w3.org/2000/svg">
<path d="M22.6084 13.6406C22.7285 12.9814 22.793 12.3076 22.793 11.6338C22.793 10.1396 22.5 8.68945 21.9229 7.32715C21.3662 6.00879 20.5664 4.8252 19.5498 3.80859C18.5417 2.79792 17.3467 1.99294 16.0313 1.43848C14.666 0.861328 13.2188 0.568359 11.7246 0.568359C11.0215 0.568359 10.3154 0.635742 9.6299 0.767578C8.68131 0.264912 7.62434 0.0014244 6.5508 0C4.80178 0 3.15529 0.682617 1.91896 1.91895C1.30889 2.52588 0.825187 3.24773 0.49581 4.04276C0.166434 4.83779 -0.00207706 5.69023 1.93222e-05 6.55078C1.93222e-05 7.66406 0.287129 8.75977 0.823262 9.72656C0.714863 10.3535 0.656269 10.9951 0.656269 11.6338C0.656269 13.1279 0.949238 14.5781 1.52639 15.9404C2.08303 17.2588 2.8799 18.4424 3.8965 19.459C4.91311 20.4756 6.0967 21.2725 7.41506 21.8291C8.78029 22.4062 10.2276 22.6992 11.7217 22.6992C12.3721 22.6992 13.0225 22.6406 13.6612 22.5264C14.6426 23.0801 15.75 23.376 16.8838 23.376C18.6328 23.376 20.2793 22.6963 21.5156 21.457C22.7549 20.2207 23.4346 18.5742 23.4346 16.8252C23.4375 15.7119 23.1504 14.6133 22.6084 13.6406ZM11.7686 18.4131C7.83693 18.4131 6.07912 16.4795 6.07912 15.0322C6.07912 14.2881 6.62697 13.7695 7.38283 13.7695C9.06447 13.7695 8.63088 16.1865 11.7686 16.1865C13.377 16.1865 14.2647 15.3135 14.2647 14.4199C14.2647 13.8838 14.001 13.2861 12.9404 13.0254L9.4424 12.1523C6.62697 11.4463 6.11428 9.92285 6.11428 8.49316C6.11428 5.52246 8.91213 4.40625 11.5401 4.40625C13.96 4.40625 16.8135 5.74512 16.8135 7.52637C16.8135 8.29102 16.1514 8.7334 15.3955 8.7334C13.96 8.7334 14.2237 6.74707 11.3321 6.74707C9.8965 6.74707 9.10256 7.39746 9.10256 8.32617C9.10256 9.25488 10.2363 9.55078 11.2207 9.77637L13.8106 10.3506C16.6465 10.9834 17.3643 12.6387 17.3643 14.1973C17.3643 16.6084 15.5098 18.4131 11.7686 18.4131Z" fill="#26C17E"/>
</svg>
